<?xml version="1.0" encoding="UTF-8"?>
<svg version="1.1" viewBox="0 0 2048 2048" width="1280" height="1280" xmlns="http://www.w3.org/2000/svg">
<path transform="translate(134,495)" d="m0 0h1781l24 2 17 4 17 7 13 7 11 8 10 9 5 5 10 11 9 14 8 17 5 15 4 17v826l-7 26-7 17-9 15-7 9-11 12-9 8-15 10-16 8-18 6-14 3-9 1h-1805l-16-2-18-5-18-8-11-7-13-10-14-14-9-12-9-16-6-14-6-21-1-4v-830l7-25 7-16 6-11 10-14 11-12 11-9 15-10 19-9 18-5 13-2z" fill="#C9C7C9"/>
<path transform="translate(188,628)" d="m0 0h505l1 2-1 790h-526l-11-1-9-4-8-7-5-8-2-27-1-46-1-78v-411l1-151 1-31 2-10 9-10 8-5 9-2z" fill="#FBFBFB"/>
<path transform="translate(759,628)" d="m0 0h529v792l-523 1-5-1-1-54z" fill="#FBFBFB"/>
<path transform="translate(1354,628)" d="m0 0h285l-6 8-14 19-12 16-20 28-8 11-12 16-10 13-12 16-13 18-13 17-14 21-8 16-2 6v13l5 10 5 7 10 7 7 3 18 1h186l33-1 9-3 9-7 7-11 2-6-1-10-5-12-7-8-8-5-3-1h-170l-4-1 1-4 16-21 8-11 21-28 14-19 24-32 7-9 14-19 11-15 12-16 4-6 2-1h95l77 1 9 5 8 8 3 6 1 6 1 63-1 658-1 23-4 10-7 7-8 3-7 1-64 1h-50l-3-25-6-25-6-15-5-8-9-14-10-13-17-17 2-4 11-10 9-11 11-16 9-17 6-16 5-23 1-10v-18l-3-21-6-20-8-18-8-14-10-13-18-18-16-11-19-10-20-7-18-4-10-1h-25l-22 4-19 6-16 8-10 6-12 9-12 11-10 11-9 13-10 19-7 19-3 14v9l4 10 8 10 12 7 4 1h7l11-4 9-7 6-9 8-23 9-16 12-13 12-9 17-8 17-3h16l16 3 13 5 13 8 10 9 9 11 8 16 4 13 1 7v19l-4 16-7 15-9 13-9 9-10 7-14 7-15 4-18 2-12 4-8 6-5 8-3 10v7l3 10 7 10 11 7 8 2 17 2 15 4 16 8 8 6 11 11 8 13 6 14 4 17 1 11-346 1-8-1z" fill="#FBFBFB"/>
<path transform="translate(61,516)" d="m0 0h2l1 4v-3h2l1 321v549l2 42 3 16 5 10 6 9 5 5 5 4v2l5 2 11 5 9 2 29 1h1727l139-1 3-1 13 3-1 4-8 12-14 15-12 10-13 8-16 8-20 6-19 3h-1805l-16-2-18-5-18-8-11-7-13-10-14-14-9-12-9-16-6-14-6-21-1-4v-830l7-25 7-16 6-11 10-14 11-12 11-9z" fill="#B8B2B9"/>
<path transform="translate(423,761)" d="m0 0h10l19 2 25 6 24 10 14 8 14 10 13 12 9 9 11 15 10 17 10 25 4 16 1 6 1 34v210l-2 18-5 19-8 19-11 19-11 14-11 12-11 10-16 11-16 9-15 6-20 6-16 3-8 1h-15l-18-2-25-6-15-6-16-8-16-10-14-12-11-11-13-17-11-19-7-16-5-16-3-20-1-22v-59l1-151 2-21 4-18 6-17 9-17 8-12 9-11 9-10 11-10 17-12 21-11 21-7 24-5z" fill="#79D4F1"/>
<path transform="translate(413,828)" d="m0 0h28l14 3 14 5 15 9 9 7 9 9 10 15 5 11 5 17 1 10 1 25v178l-2 26-4 15-5 12-9 14-11 12-9 8-16 9-13 5-13 3-8 1h-9l-15-2-17-5-16-8-11-8-12-12-9-14-5-11-4-14-2-13-1-15-1-36v-140l2-33 3-16 5-13 6-11 10-13 9-9 13-9 17-8z" fill="#FBFBFB"/>
<path transform="translate(702,627)" d="m0 0h31l26 1 1 792h5l7 2v1l-11 1-5-2-62-1v-793z" fill="#B8B2B9"/>
<path transform="translate(1302,627)" d="m0 0h48l4 1v793h5l-2 1v2h-2v-2l-66-1v-793z" fill="#B8B2B9"/>
<path transform="translate(1611,1040)" d="m0 0h25l21 3 16 5 15 6 17 9 16 12 19 19 9 13 8 14 7 16 6 20 3 21v18l-3 21-6 21-10 21-8 12-10 13-9 10-8 7 2 4 17 17 13 18 8 14 4 8 5 15 5 25 1 17-1 1-25 1h-37l-3-3-5-23-6-15-7-12-9-10-9-8-16-8-13-4-10-2-16-2-10-5-7-6-5-8-3-10v-7l3-10 6-9 10-7 10-3 18-2 15-4 16-8 11-9 9-10 6-9 8-20 2-10v-19l-3-14-5-13-7-12-12-13-10-7-14-7-15-4-7-1h-16l-17 3-19 9-11 9-10 11-9 16-8 23-6 9-8 7-9 4-4 1h-7l-10-4-8-6-8-10-3-9v-9l4-17 8-20 9-17 10-13 9-10 8-8 13-10 11-7 14-7 16-6 22-5z" fill="#79D4F1"/>
<path transform="translate(960,771)" d="m0 0h110l10 6 9 9 3 5 1 319 1 101v42l-5 10-9 9-12 6-4 1h-7l-10-4-8-6-7-8-3-9-1-404-1-10-6-1-61-1-10-4-8-7-6-9-2-6v-12l4-12 7-8 8-5z" fill="#78D4F1"/>
<path transform="translate(1641,627)" d="m0 0h78l2 2-8 11-9 12-8 11-13 18-9 12-8 10-12 16-28 38-10 13-14 19-13 17-1 3h174l8 4 7 6 6 9 4 13-1 9-6 10-4 5-10 7-7 2-33 1h-186l-18-1-12-6-6-5-9-14-1-3v-13l5-13 8-14 12-17 12-16 14-19 12-16 10-13 12-16 8-11 9-13 10-14 10-13 13-18 8-10z" fill="#79D4F1"/>
<path transform="translate(1641,627)" d="m0 0h78l2 2-8 11-9 12-8 11-13 18-6 8-8 6-6-1h-70l3-9 10-14 10-13 13-18 8-10z" fill="#60BEE8"/>
<path transform="translate(1755,1353)" d="m0 0 4 1 4 8 5 15 5 25 1 17-1 1-25 1h-37l-3-3-5-23-6-15-7-12-6-9-4-5h70z" fill="#5FBEE8"/>
<path transform="translate(1768,1381)" d="m0 0 2 4 3 17 1 17-1 1h-23v-1l22-1-2-21-2-11z" fill="#8AD1E8"/>
<path transform="translate(1772,1415)" d="m0 0h2l-1 5h-23v-1l22-1z" fill="#79D5F2"/>
</svg>
